<?xml version="1.0"?>
<svg xmlns="http://www.w3.org/2000/svg" xmlns:xlink="http://www.w3.org/1999/xlink" xmlns:svgjs="http://svgjs.com/svgjs" version="1.1" width="512" height="512" x="0" y="0" viewBox="0 0 128 128" style="enable-background:new 0 0 512 512" xml:space="preserve"><circle r="64" cx="64" cy="64" fill="#ffffff" shape="circle"/><g transform="matrix(0.7,0,0,0.7,19.20064144134522,19.1990647315979)"><linearGradient xmlns="http://www.w3.org/2000/svg" id="a" gradientUnits="userSpaceOnUse" x1="98.368" x2="29.632" y1="104.008" y2="35.272"><stop stop-opacity="1" stop-color="#fb8301" offset="0"/><stop stop-opacity="1" stop-color="#215eac" offset="1"/></linearGradient><path xmlns="http://www.w3.org/2000/svg" d="m121.239 59.5c-5.653-8.625-22.426-11.577-40.076-12.507l1.828-3.32 4.239-1.211a1.75 1.75 0 0 0 .938-.656l5.45-7.53a1.75 1.75 0 0 0 -2.836-2.052l-5.095 7.039-4.358 1.244a1.754 1.754 0 0 0 -1.053.839l-2.946 5.354a13.472 13.472 0 0 0 .42-3.277 13.755 13.755 0 0 0 -7.619-12.29c1.469-9.912 3.359-13.403 4.269-13.877a.868.868 0 0 1 1.225.224 1.75 1.75 0 1 0 2.49-2.46 4.32 4.32 0 0 0 -5.323-.872c-.988.514-3.906 2.042-6.025 15.8a13.812 13.812 0 0 0 -5.534 0c-2.119-13.758-5.033-15.286-6.033-15.804a4.322 4.322 0 0 0 -5.316.876 1.75 1.75 0 1 0 2.49 2.46.865.865 0 0 1 1.218-.228c.917.478 2.808 3.969 4.276 13.878a13.755 13.755 0 0 0 -7.618 12.29 13.406 13.406 0 0 0 .419 3.275l-2.945-5.349a1.754 1.754 0 0 0 -1.053-.839l-4.359-1.244-5.094-7.039a1.75 1.75 0 0 0 -2.836 2.052l5.45 7.53a1.747 1.747 0 0 0 .938.656l4.239 1.211 1.822 3.309c-4.774.25-9.646.659-14.287 1.32a1.75 1.75 0 1 0 .494 3.465 193.986 193.986 0 0 1 23.281-1.6c-15.514 7.785-31.268 17.169-36.979 27.07-4.8.69-7.892-.93-9.695-5.065-1.559-3.582-1.807-6.706-.739-9.284 1.269-3.06 4.47-5.617 9.514-7.6a1.75 1.75 0 0 0 -1.279-3.258c-5.963 2.343-9.822 5.545-11.468 9.517-1.446 3.49-1.19 7.534.763 12.021 2.106 4.83 5.849 7.317 10.931 7.317.114 0 .237-.015.352-.018a13.976 13.976 0 0 0 -.517 2.271c-.624 4.65 1.323 8.967 5.786 12.831a11.688 11.688 0 0 0 7.735 3.165 11.223 11.223 0 0 0 2.976-.413c4.462-1.222 8.78-5.228 12.724-10.472q.537 2.05 1.194 3.978l-2.717 2.363a1.749 1.749 0 0 0 -.536.846l-3.131 11.124-3.6 2.552a1.75 1.75 0 0 0 1.013 3.178 1.732 1.732 0 0 0 1.008-.322l4.111-2.91a1.75 1.75 0 0 0 .674-.954l3.158-11.216 1.329-1.156a68.441 68.441 0 0 0 9.1 15.749 7.591 7.591 0 0 0 11.965 0 68.412 68.412 0 0 0 9.1-15.75l1.329 1.156 3.145 11.213a1.75 1.75 0 0 0 .674.954l4.111 2.91a1.732 1.732 0 0 0 1.008.322 1.75 1.75 0 0 0 1.013-3.178l-3.6-2.552-3.136-11.12a1.749 1.749 0 0 0 -.536-.846l-2.716-2.362q.654-1.927 1.194-3.978c3.944 5.244 8.262 9.25 12.724 10.472a11.223 11.223 0 0 0 2.976.413 11.69 11.69 0 0 0 7.735-3.165c4.209-3.644 6.182-7.7 5.865-12.058a13.776 13.776 0 0 0 -.594-3.043c.115 0 .236.017.35.017 5.081 0 8.826-2.488 10.931-7.318 2.356-5.413 2.247-10.146-.325-14.068zm-57.239-26.33a10.262 10.262 0 0 1 9.712 13.541c-3.278-.08-9.722-.111-9.722-.111s-6.265.022-9.7.1a10.241 10.241 0 0 1 9.71-13.53zm10.734 63.777a57.953 57.953 0 0 1 -21.468 0c-.415-.9-.821-1.819-1.208-2.779a54.725 54.725 0 0 0 11.942 1.302 56.685 56.685 0 0 0 6.973-.428 1.75 1.75 0 0 0 -.432-3.474 53.035 53.035 0 0 1 -6.541.4 50.65 50.65 0 0 1 -13.371-1.754c-.511-1.594-.955-3.26-1.328-4.978a60.773 60.773 0 0 0 29.4 0 56.606 56.606 0 0 1 -3.967 11.711zm-10.734-13.407a56.609 56.609 0 0 1 -13.348-1.572q.679-1.113 1.337-2.254a55.151 55.151 0 0 0 24.024 0q.655 1.137 1.334 2.248a56.386 56.386 0 0 1 -13.347 1.578zm-10.232-7.023c.791-1.472 1.552-2.955 2.281-4.43a61.492 61.492 0 0 0 7.951.523 61.861 61.861 0 0 0 7.951-.522c.729 1.474 1.49 2.956 2.28 4.428a52.991 52.991 0 0 1 -20.463.001zm3.877-7.753q.57-1.221 1.108-2.416c1.733.16 3.489.262 5.247.262s3.514-.1 5.247-.261c.358.794.728 1.6 1.108 2.414a59.022 59.022 0 0 1 -12.71.001zm2.592-5.8c1.563-3.664 2.842-6.941 3.763-9.412.921 2.471 2.195 5.744 3.763 9.409a54.164 54.164 0 0 1 -7.526.001zm-27.464 32.382c-2.635.722-5.088.061-7.494-2.021-3.564-3.087-5.071-6.266-4.607-9.72 1.628-12.131 26.89-25.325 40.267-31.84-5.149 13.984-16.997 40.523-28.166 43.581zm34.443 13.993a4.094 4.094 0 0 1 -6.433 0 65.33 65.33 0 0 1 -5.564-8.509 60.466 60.466 0 0 0 17.562 0 65.169 65.169 0 0 1 -5.565 8.509zm51.139-37.168c-1.8 4.129-4.89 5.752-9.672 5.07-3.007-5.248-9.084-10.766-18.383-16.7a1.75 1.75 0 0 0 -1.885 2.949c9.093 5.808 14.954 11.165 17.512 15.99a1.748 1.748 0 0 0 .1.194 11.773 11.773 0 0 1 1.364 4.5c.235 3.24-1.291 6.236-4.666 9.159-2.406 2.083-4.857 2.744-7.494 2.021-11.171-3.066-23.016-29.593-28.168-43.579 4.081 2 9.051 4.52 13.887 7.246l.683.387.044.025a1.707 1.707 0 0 0 .846.226 1.749 1.749 0 0 0 1.518-.895 1.771 1.771 0 0 0 -.68-2.4l-.692-.392c-3.757-2.118-7.572-4.1-11.011-5.825 15.458.247 40.431 1.776 46.654 11.27 1.91 2.915 1.924 6.433.043 10.754zm-96.577-19.889a1.752 1.752 0 0 1 1.256-2.133c1.1-.283 2.253-.551 3.441-.8a1.749 1.749 0 1 1 .711 3.426c-1.133.235-2.235.491-3.275.76a1.749 1.749 0 0 1 -2.133-1.256zm68.884 17.818a1.751 1.751 0 0 1 2.449-.357c1.3.971 2.519 1.941 3.615 2.881a1.75 1.75 0 0 1 -2.28 2.656c-1.035-.888-2.188-1.807-3.426-2.731a1.75 1.75 0 0 1 -.358-2.449z" fill="url(#a)" data-original="url(#a)" style=""/></g></svg>
